# xmcd
#
# Track frame offsets:
#	150
#	15775
#	30493
#	42298
#	57409
#	72279
#	84907
#	95577
#	107674
#	117322
#	130512
#
# Disc length: 1915 seconds
#
# Revision: 2
# Processed by: cddbd v1.4b41PL3 Copyright (c) Steve Scherf et al.
# Submitted via: EZCDDA 4.3.2
#
DISCID=7f07790b
DTITLE=Cardenales de Nuevo León - Se Quita el Sombrero
DYEAR=1900
DGENRE=
TTITLE0=Compréndala
TTITLE1=Amor añejo
TTITLE2=La chica enojada
TTITLE3=Regresa
TTITLE4=Lindo cariñito
TTITLE5=Soy
TTITLE6=Y lloras, corazón
TTITLE7=Pobre de él
TTITLE8=Siempre te amaré
TTITLE9=El cariño que perdí
TTITLE10=El Cachas de Oro
EXTD=
EXTT0=Ranchera\n
EXTT1=Ranchera\n
EXTT2=Cumbia\n
EXTT3=Ranchera\n
EXTT4=Ranchera\n
EXTT5=Ranchera\n
EXTT6=Cumbia\n
EXTT7=Ranchera\n
EXTT8=Cumbia\n
EXTT9=Ranchera\n
EXTT10=Corrido\n
PLAYORDER=
